<svg width="45" height="45" viewBox="0 0 45 45" fill="none" xmlns="http://www.w3.org/2000/svg">
<g clip-path="url(#clip0_16_30)">
<path d="M0 45H45V0H0V45Z" fill="#F0D91F"/>
<path d="M22.5 0H0V45H22.5V0Z" fill="#D1BD1B"/>
<path d="M37.095 34.9294C36.6169 33.1275 32.8744 32.7075 30.315 30.795C27.7275 29.0513 27.1106 24.8325 29.2481 22.4119C29.9794 21.5119 31.1869 20.8369 32.4544 20.5275L33.7762 20.3606C36.3356 20.3025 37.9087 20.9775 39.09 22.2994C39.4312 22.635 39.6825 22.9744 40.1887 23.7619C38.8369 24.6038 38.8369 24.6038 36.8981 25.8713C36.4744 24.9713 35.7994 24.4088 35.0681 24.1838C33.9431 23.8463 32.5087 24.21 32.2275 25.4213C32.1169 25.7869 32.1431 26.1244 32.3137 26.7431C32.7694 27.7838 34.3031 28.2338 35.6831 28.8806C39.6487 30.4913 40.9837 32.2144 41.3137 34.2675L41.2275 34.1419C41.5387 35.9138 41.1431 37.0669 41.0887 37.2356C39.6244 42.2419 31.4681 42.4106 28.2056 39.12C27.5306 38.3325 27.0806 37.9388 26.6869 37.0406L30.1181 35.07C31.0462 36.4763 31.8881 37.2375 33.4087 37.575C35.4637 37.8263 37.545 37.1231 37.095 34.9294ZM15.2494 35.58C15.2812 35.58 15.3694 35.7506 15.4875 35.9475C15.9244 36.6769 16.3012 37.1831 17.0437 37.5506C17.7675 37.7775 19.3612 37.9425 19.98 36.6506C20.355 36 20.2369 33.8775 20.2369 31.5675C20.2369 27.9281 20.2537 24.3169 20.2537 20.6831H24.4687L24.4594 20.7881C24.4594 24.6694 24.4819 28.5225 24.4594 32.3738C24.4706 34.7663 24.6712 36.9038 23.715 38.6475C23.0531 39.9956 21.7875 40.8675 20.3194 41.2931C18.0637 41.7994 15.9094 41.49 14.3062 40.5338C13.23 39.8869 12.3956 38.8706 11.8237 37.6894L15.2494 35.58Z" fill="black"/>
<path d="M34.0763 20.3569C33.9788 20.3569 33.8775 20.3587 33.7763 20.3606L32.4544 20.5275C31.1869 20.8369 29.9794 21.5119 29.2481 22.4119C27.1106 24.8325 27.7275 29.0512 30.315 30.795C30.3375 30.8119 30.3619 30.8287 30.3844 30.8475H39.2419C38.3963 30.165 37.2431 29.5144 35.6831 28.8806C34.3013 28.2337 32.7694 27.7837 32.3138 26.7431C32.1431 26.1244 32.1169 25.7869 32.2275 25.4212C32.4431 24.495 33.3319 24.0637 34.2431 24.0637C34.5225 24.0637 34.8038 24.105 35.0681 24.1837C35.7994 24.4087 36.4744 24.9712 36.8981 25.8712C38.8369 24.6037 38.8369 24.6037 40.1888 23.7619C39.6825 22.9744 39.4313 22.6369 39.09 22.2994C37.9556 21.03 36.4594 20.3569 34.0763 20.3569ZM24.4706 20.6831H20.2556C20.2556 24.0769 20.2406 27.4519 20.2388 30.8475H24.4688C24.48 27.5044 24.4613 24.1575 24.4613 20.7881L24.4706 20.6831Z" fill="#212121"/>
</g>
<defs>
<clipPath id="clip0_16_30">
<rect width="45" height="45" rx="5" fill="white"/>
</clipPath>
</defs>
</svg>
